<?xml version="1.0" standalone="no"?>
<!DOCTYPE svg PUBLIC "-//W3C//DTD SVG 20010904//EN"
 "http://www.w3.org/TR/2001/REC-SVG-20010904/DTD/svg10.dtd">
<svg version="1.0" xmlns="http://www.w3.org/2000/svg"
 width="512.000000pt" height="512.000000pt" viewBox="0 0 512.000000 512.000000"
 preserveAspectRatio="xMidYMid meet">

<g transform="translate(0.000000,512.000000) scale(0.100000,-0.100000)"
fill="#000000" stroke="none">
<path d="M2850 5094 c-101 -265 -132 -284 -546 -338 -396 -52 -499 -90 -640
-232 -113 -114 -179 -272 -193 -464 l-6 -84 -75 -12 c-144 -23 -254 -79 -356
-179 -191 -189 -245 -475 -135 -712 17 -36 31 -69 31 -74 0 -5 -15 -9 -32 -9
-58 0 -161 -30 -238 -68 -111 -54 -226 -170 -279 -282 -93 -194 -93 -380 -1
-568 47 -94 131 -191 215 -247 30 -19 56 -43 59 -53 3 -9 116 -404 251 -877
135 -473 248 -868 251 -877 5 -17 81 -18 1404 -18 1323 0 1399 1 1404 18 3 9
116 404 251 877 135 473 248 868 251 877 3 10 29 34 59 53 84 56 168 153 215
247 93 189 92 380 -4 578 -45 94 -176 223 -276 272 -77 38 -181 68 -237 68
-18 0 -33 4 -33 9 0 5 14 38 31 74 82 176 73 386 -24 572 -45 84 -164 201
-254 248 -77 40 -203 77 -262 77 l-36 0 0 138 c0 147 -14 210 -72 326 -110
221 -346 458 -631 635 l-82 51 -10 -26z m203 -481 c232 -205 338 -430 285
-604 l-11 -39 -780 0 -780 0 6 78 c13 195 105 315 275 361 42 11 179 34 303
50 318 43 473 92 572 182 23 21 45 38 48 39 3 0 40 -30 82 -67z m701 -963
c290 -109 295 -516 7 -632 l-56 -23 -1145 0 -1145 0 -56 23 c-199 80 -278 325
-160 497 46 67 87 102 159 131 l57 24 1142 0 c1125 0 1143 0 1197 -20z m561
-989 c67 -33 131 -100 163 -169 38 -81 38 -193 0 -274 -32 -69 -96 -136 -163
-169 l-50 -24 -1705 0 -1705 0 -50 24 c-67 33 -131 100 -163 169 -22 47 -26
71 -26 137 0 118 48 212 141 276 89 62 -35 58 1813 56 l1695 -2 50 -24z
m-2770 -973 c14 -80 195 -1351 195 -1369 0 -19 -7 -19 -177 -17 l-177 3 -198
690 c-108 380 -197 698 -198 708 0 16 20 17 275 17 l274 0 6 -32z m865 -678
l0 -710 -180 0 c-178 0 -180 0 -185 23 -7 34 -195 1360 -195 1380 0 16 20 17
280 17 l280 0 0 -710z m860 693 c0 -20 -188 -1346 -195 -1380 -5 -23 -7 -23
-185 -23 l-180 0 0 710 0 710 280 0 c260 0 280 -1 280 -17z m860 0 c-1 -10
-90 -328 -198 -708 l-198 -690 -177 -3 c-170 -2 -177 -2 -177 17 0 18 181
1289 195 1369 l6 32 274 0 c255 0 275 -1 275 -17z"/>
</g>
</svg>
