<?xml version="1.0" standalone="no"?>
<svg version="1.0" xmlns="http://www.w3.org/2000/svg"
 width="500.000000pt" height="500.000000pt" viewBox="0 0 500.000000 500.000000"
 preserveAspectRatio="xMidYMid meet">

<g transform="translate(0.000000,500.000000) scale(0.100000,-0.100000)"
fill="#000000" stroke="none">
<path d="M1261 4327 c-53 -20 -107 -72 -135 -129 -47 -98 -59 -161 -60 -334
l-1 -161 -51 -56 c-134 -146 -259 -364 -308 -539 -24 -83 -56 -268 -56 -321 0
-21 -9 -30 -47 -47 -140 -62 -212 -193 -201 -366 4 -60 13 -89 45 -156 35 -73
41 -95 47 -178 4 -52 16 -157 27 -232 58 -409 191 -679 376 -766 l58 -27 915
-6 c503 -3 1199 -3 1545 0 l630 6 58 27 c102 48 199 166 267 327 63 148 122
434 135 656 6 91 10 107 48 184 l42 84 0 116 c0 108 -2 120 -30 175 -33 66
-96 126 -160 153 -46 19 -55 33 -55 94 0 66 -30 212 -65 316 -59 177 -148 331
-278 480 l-67 78 -4 160 c-5 172 -19 253 -60 333 -52 103 -106 136 -221 136
-104 0 -187 -26 -352 -110 l-128 -66 -105 26 c-243 59 -266 61 -570 61 -304 0
-318 -2 -565 -61 l-111 -27 -114 61 c-63 33 -150 72 -192 86 -92 31 -208 41
-257 23z m184 -82 c68 -17 245 -100 313 -146 l46 -31 145 36 c155 37 311 61
477 71 178 12 474 -24 670 -80 46 -14 90 -25 97 -25 6 0 32 14 57 31 139 95
357 172 441 155 110 -20 152 -127 164 -416 l6 -165 43 -45 c179 -187 299 -409
345 -637 12 -55 21 -131 21 -166 0 -88 11 -113 52 -122 120 -25 208 -149 208
-293 0 -95 -22 -160 -72 -217 -79 -90 -179 -110 -276 -54 l-53 30 21 28 c24
35 25 54 5 71 -13 11 -23 6 -63 -29 -26 -23 -75 -56 -110 -72 -58 -29 -68 -31
-155 -27 -108 4 -164 26 -234 94 -35 33 -44 48 -41 69 2 19 -3 31 -15 39 -15
9 -22 7 -38 -14 -109 -138 -168 -173 -296 -179 -94 -4 -148 11 -217 58 -57 40
-89 84 -96 135 -4 32 -10 42 -26 44 -16 2 -25 -8 -44 -50 -29 -65 -99 -135
-165 -168 -44 -22 -64 -25 -155 -25 -101 0 -108 1 -169 35 -68 37 -122 95
-155 168 -29 64 -66 54 -66 -17 0 -39 -69 -115 -134 -148 -41 -21 -69 -27
-141 -31 -144 -6 -227 36 -325 166 -30 41 -60 36 -60 -9 0 -41 -58 -101 -132
-139 -55 -27 -71 -30 -152 -30 -109 0 -163 21 -245 94 -54 48 -67 52 -85 23
-8 -12 -5 -24 13 -47 27 -37 21 -49 -43 -79 -159 -78 -336 67 -336 274 0 135
82 262 185 286 28 7 55 13 61 15 7 1 14 43 18 101 23 309 124 542 342 786 l74
82 0 161 c0 128 4 177 20 240 43 167 113 210 275 169z m853 -2124 c165 -84
356 -59 493 67 l56 51 54 -51 c65 -61 153 -105 230 -114 118 -14 265 35 339
111 l33 34 51 -46 c76 -69 156 -103 258 -110 71 -5 95 -2 149 16 35 12 75 28
89 35 22 13 28 11 68 -16 90 -62 197 -74 284 -32 21 10 41 15 44 11 4 -4 -1
-73 -10 -154 -54 -464 -171 -735 -353 -821 l-58 -27 -1525 0 -1525 0 -57 27
c-193 90 -315 398 -363 915 l-7 72 59 -24 c97 -41 184 -30 277 34 l44 31 66
-31 c156 -73 345 -39 465 85 l34 35 48 -43 c166 -149 416 -138 576 26 l37 38
51 -49 c28 -27 70 -58 93 -70z"/>
<path d="M1668 3356 c-20 -7 -59 -30 -87 -50 -86 -64 -113 -114 -72 -135 15
-8 27 -4 59 19 22 16 43 34 47 40 3 5 28 22 55 35 80 41 147 32 248 -32 29
-18 59 -33 67 -33 18 0 37 34 29 54 -8 20 -96 78 -152 99 -50 20 -142 21 -194
3z"/>
<path d="M3137 3351 c-26 -11 -70 -34 -97 -51 -41 -27 -50 -37 -50 -61 0 -39
25 -48 64 -24 86 52 141 75 180 75 52 0 118 -30 179 -81 54 -46 90 -50 95 -10
4 28 -75 109 -140 142 -61 31 -167 36 -231 10z"/>
<path d="M2445 3087 c-41 -87 -101 -147 -181 -183 -30 -13 -61 -24 -68 -24 -7
0 -19 -7 -27 -16 -18 -22 5 -36 49 -30 92 13 208 97 253 181 13 25 27 45 30
45 3 0 15 -18 28 -40 33 -59 101 -122 165 -153 64 -31 141 -41 141 -18 0 16
-4 18 -103 62 -86 38 -132 85 -173 174 -25 56 -43 75 -70 75 -5 0 -24 -33 -44
-73z"/>
<path d="M1045 3070 c-3 -4 6 -10 18 -14 64 -16 317 -56 352 -56 75 1 14 18
-160 44 -94 15 -178 28 -187 30 -10 2 -20 1 -23 -4z"/>
<path d="M3870 3064 c-260 -40 -362 -63 -278 -64 40 0 304 44 353 59 29 9 29
9 -10 9 -22 0 -51 -2 -65 -4z"/>
<path d="M1415 2803 c-276 -61 -345 -77 -370 -88 -18 -8 -23 -14 -13 -14 24
-1 458 99 458 105 0 5 -49 3 -75 -3z"/>
<path d="M3521 2805 c8 -7 426 -105 450 -105 36 0 17 9 -67 30 -210 54 -398
91 -383 75z"/>
<path d="M2300 2366 c0 -31 163 -72 244 -62 65 9 141 33 156 51 19 23 -4 25
-69 5 -83 -26 -190 -26 -266 0 -69 24 -65 23 -65 6z"/>
<path d="M2230 1968 c0 -69 21 -673 26 -725 4 -48 9 -63 21 -63 14 0 15 30 9
278 -3 152 -9 334 -13 405 -5 115 -8 127 -24 127 -13 0 -19 -7 -19 -22z"/>
<path d="M2736 1918 c-10 -117 -26 -719 -20 -729 3 -5 11 -9 18 -9 16 0 23 99
31 435 3 116 8 247 11 293 5 77 5 82 -14 82 -18 0 -21 -9 -26 -72z"/>
<path d="M1875 1971 c-6 -11 22 -748 30 -768 2 -7 9 -13 15 -13 6 0 10 36 10
93 0 118 -20 622 -26 665 -5 31 -17 41 -29 23z"/>
<path d="M3100 1938 c0 -24 -7 -191 -15 -373 -18 -407 -18 -375 0 -375 21 0
23 16 35 330 14 399 14 460 -5 460 -11 0 -15 -11 -15 -42z"/>
<path d="M1500 1908 c0 -35 9 -202 20 -372 14 -221 23 -312 32 -318 10 -5 14
5 16 40 3 62 -35 688 -43 702 -15 25 -25 5 -25 -52z"/>
<path d="M3481 1949 c-11 -27 -45 -607 -39 -686 2 -36 7 -50 14 -45 16 10 60
730 46 744 -8 8 -14 4 -21 -13z"/>
<path d="M1090 1914 c0 -37 60 -636 65 -651 2 -7 11 -13 19 -13 12 0 14 10 10
48 -3 26 -20 179 -37 341 -22 203 -36 296 -45 299 -7 2 -12 -6 -12 -24z"/>
<path d="M3896 1931 c-4 -7 -76 -641 -76 -673 0 -5 7 -8 15 -8 18 0 21 14 35
175 6 72 20 208 31 302 10 95 19 182 19 193 0 20 -14 27 -24 11z"/>
<path d="M760 1898 c0 -37 104 -595 112 -606 6 -7 15 -9 19 -5 7 7 -91 572
-105 609 -7 17 -26 18 -26 2z"/>
<path d="M4211 1858 c-39 -196 -101 -553 -99 -564 2 -9 8 -10 17 -5 12 8 30
98 116 589 5 24 2 32 -9 32 -10 0 -18 -18 -25 -52z"/>
</g>
</svg>
