<?xml version="1.0" encoding="UTF-8" standalone="no" ?>
<!DOCTYPE svg PUBLIC "-//W3C//DTD SVG 1.1//EN" "http://www.w3.org/Graphics/SVG/1.1/DTD/svg11.dtd">
<svg xmlns="http://www.w3.org/2000/svg" xmlns:xlink="http://www.w3.org/1999/xlink" version="1.1" width="200" height="40" viewBox="0 0 200 40" xml:space="preserve">
<desc>Created with Fabric.js 5.2.4</desc>
<defs>
</defs>
<g transform="matrix(1 0 0 1 100 20)" id="84a4857e-9590-4032-8776-129d7d45117a"  >
<rect style="stroke: none; stroke-width: 1; stroke-dasharray: none; stroke-linecap: butt; stroke-dashoffset: 0; stroke-linejoin: miter; stroke-miterlimit: 4; fill: rgb(255,255,255); fill-rule: nonzero; opacity: 1; visibility: hidden;" vector-effect="non-scaling-stroke"  x="-100" y="-20" rx="0" ry="0" width="200" height="40" />
</g>
<g transform="matrix(0 0 0 0 0 0)" id="22f1a186-76a4-44ed-950b-a27bf3e6b603"  >
</g>
<g transform="matrix(0.36 0 0 0.36 100 20)"  >
<path style="stroke: rgb(214,44,88); stroke-width: 0; stroke-dasharray: none; stroke-linecap: butt; stroke-dashoffset: 0; stroke-linejoin: miter; stroke-miterlimit: 4; fill: rgb(214,44,88); fill-rule: nonzero; opacity: 1;" vector-effect="non-scaling-stroke"  transform=" translate(-267.18, -266.86)" d="M 65.55 244.519 C 75.07 251.945 84.127 259.075 93.35499999999999 265.973 C 98.18399999999998 269.582 107.89899999999999 271.043 113.57499999999999 269.558 C 114.54199999999999 269.305 115.58999999999999 269.24 116.59499999999998 269.274 C 128.59699999999998 269.677 139.26399999999998 265.223 149.69699999999997 260.072 C 160.60499999999996 254.687 171.30799999999996 256.224 182.06199999999998 260.49 C 190.88799999999998 263.991 200.21999999999997 265.008 209.55499999999998 266.253 C 214.80899999999997 266.954 219.903 268.961 225.028 270.51599999999996 C 232.501 272.78399999999993 239.084 277.21399999999994 246.231 279.96999999999997 C 256.318 283.861 266.815 288.02099999999996 278.061 286.455 C 289.942 284.8 301.55499999999995 281.632 312.32399999999996 276.351 C 321.282 271.957 329.51399999999995 266.09 338.44699999999995 261.637 C 343.37699999999995 259.179 349.07899999999995 258.25600000000003 354.44999999999993 256.698 C 364.5589999999999 253.766 372.72099999999995 258.332 381.1689999999999 263.03299999999996 C 386.38499999999993 265.93499999999995 392.35599999999994 267.92499999999995 398.2319999999999 269.09399999999994 C 406.8299999999999 270.80499999999995 415.5189999999999 271.98799999999994 424.3549999999999 272.73099999999994 C 445.6059999999999 274.51699999999994 466.0499999999999 271.2319999999999 485.6589999999999 264.17599999999993 C 495.78499999999985 260.5319999999999 505.86899999999986 257.22599999999994 516.2879999999999 254.74599999999992 C 516.8699999999999 254.60799999999992 517.4019999999999 254.25799999999992 517.9579999999999 254.00599999999991 C 517.8069999999999 254.89999999999992 517.9559999999999 256.2919999999999 517.4519999999999 256.5949999999999 C 515.8109999999999 257.5809999999999 513.9589999999998 258.2439999999999 512.1399999999999 258.8959999999999 C 499.1439999999999 263.5459999999999 486.22499999999985 268.4329999999999 473.1049999999999 272.7029999999999 C 462.7219999999999 276.08199999999994 452.1719999999999 279.04799999999994 441.0209999999999 278.71399999999994 C 434.7439999999999 278.52699999999993 428.4439999999999 278.42199999999997 422.1779999999999 278.73799999999994 C 411.47199999999987 279.2799999999999 401.4539999999999 276.1669999999999 391.3609999999999 273.4359999999999 C 384.2959999999999 271.5249999999999 377.94099999999986 267.9719999999999 371.3559999999999 264.8329999999999 C 361.6949999999999 260.2279999999999 351.31399999999985 261.1369999999999 341.7999999999999 266.1889999999999 C 332.7559999999999 270.99099999999993 324.2929999999999 276.9369999999999 315.0879999999999 281.3719999999999 C 307.7159999999999 284.9239999999999 299.69499999999994 287.2289999999999 291.8109999999999 289.5809999999999 C 286.63499999999993 291.1259999999999 281.22099999999995 292.3509999999999 275.8549999999999 292.6469999999999 C 270.8799999999999 292.9199999999999 265.6849999999999 292.3309999999999 260.8459999999999 291.1009999999999 C 255.0139999999999 289.6179999999999 249.42699999999988 287.1319999999999 243.7859999999999 284.9469999999999 C 233.63599999999988 281.0159999999999 223.53999999999988 276.9489999999999 213.3809999999999 273.0429999999999 C 212.0179999999999 272.5189999999999 210.4289999999999 272.5229999999999 208.93399999999988 272.4099999999999 C 198.7879999999999 271.6459999999999 188.88999999999987 270.1379999999999 179.4359999999999 265.87799999999993 C 170.7339999999999 261.95699999999994 161.9589999999999 261.7319999999999 152.8099999999999 265.9459999999999 C 144.2679999999999 269.87999999999994 135.2629999999999 273.4849999999999 126.08699999999989 275.0849999999999 C 121.4269999999999 275.8979999999999 116.28899999999989 277.9459999999999 110.81799999999988 275.94699999999995 C 105.95899999999989 274.17199999999997 100.31299999999989 276.28299999999996 95.08999999999989 274.07699999999994 C 90.1979999999999 272.01099999999997 85.9389999999999 269.2989999999999 82.02799999999989 265.76699999999994 C 74.98599999999989 259.4069999999999 67.67599999999989 253.36899999999994 59.11399999999989 249.07999999999993 C 51.12999999999989 245.08199999999994 36.81599999999989 246.96199999999993 29.867999999999892 252.62599999999992 C 27.219999999999892 254.7839999999999 24.252999999999894 256.6979999999999 21.14099999999989 258.0609999999999 C 19.992999999999892 258.5639999999999 18.00999999999989 257.1629999999999 16.40699999999989 256.6309999999999 C 17.06999999999989 255.07999999999993 17.29699999999989 252.78799999999993 18.46699999999989 252.10399999999993 C 24.750999999999888 248.42599999999993 30.95899999999989 244.11499999999992 37.80499999999989 242.05599999999993 C 43.46099999999989 240.35399999999993 49.98299999999989 241.15899999999993 56.087999999999894 241.47999999999993 C 59.148999999999894 241.64099999999993 62.13799999999989 243.19999999999993 65.55099999999989 244.51899999999992 Z" stroke-linecap="round" />
</g>
<g transform="matrix(NaN NaN NaN NaN 0 0)"  >
<g style=""   >
</g>
</g>
<g transform="matrix(NaN NaN NaN NaN 0 0)"  >
<g style=""   >
</g>
</g>
</svg>